<svg height="14" fill="#fff" xmlns="http://www.w3.org/2000/svg" viewBox="0 0 32 24.22"><path d="M16.23 24.22a2 2 0 0 1-.73-.14L7 20.79a2 2 0 0 1-1.29-1.88v-4a1.5 1.5 0 0 1 3 0v3.36l7.54 2.92 7.54-2.92v-3.45a1.5 1.5 0 0 1 3 0v4.09a2 2 0 0 1-1.29 1.88L17 24.08a2 2 0 0 1-.77.14zm-.35-2.94zm.7 0z"></path><path d="M16.23 13.35a2 2 0 0 1-.62-.1C9.17 11.16 2.36 9 1.61 8.76a2 2 0 0 1-.25-3.87l14-4.78a2 2 0 0 1 1.3 0l14 4.78a2 2 0 0 1 0 3.81l-13.8 4.55a2 2 0 0 1-.63.1zm-.31-3zM5.21 6.74c3.49 1.11 9.07 2.92 11 3.56l10.68-3.53L16 3.05z"></path></svg>